G75*
%MOIN*%
%OFA0B0*%
%FSLAX24Y24*%
%IPPOS*%
%LPD*%
%AMOC8*
5,1,8,0,0,1.08239X$1,22.5*
%
%ADD10OC8,0.0740*%
%ADD11OC8,0.0600*%
%ADD12C,0.0200*%
%ADD13C,0.0160*%
D10*
X025680Y011680D03*
X026680Y011680D03*
X027680Y011680D03*
X028680Y011680D03*
X029680Y011680D03*
X030680Y011680D03*
X031680Y011680D03*
X032680Y011680D03*
X033680Y011680D03*
X034680Y011680D03*
X034680Y012680D03*
X033680Y012680D03*
X032680Y012680D03*
X031680Y012680D03*
X030680Y012680D03*
X029680Y012680D03*
X028680Y012680D03*
X027680Y012680D03*
X026680Y012680D03*
X025680Y012680D03*
D11*
X022180Y012680D03*
X021180Y012680D03*
X020180Y012680D03*
X019180Y012680D03*
X018180Y012680D03*
X017180Y012680D03*
X016180Y012680D03*
X015180Y012680D03*
X014180Y012680D03*
X013180Y012680D03*
X012180Y012680D03*
X011180Y012680D03*
X010180Y012680D03*
X009180Y012680D03*
X008180Y012680D03*
X007180Y012680D03*
X006180Y012680D03*
X005180Y012680D03*
X004180Y012680D03*
X003180Y012680D03*
X003180Y011680D03*
X004180Y011680D03*
X005180Y011680D03*
X006180Y011680D03*
X007180Y011680D03*
X008180Y011680D03*
X009180Y011680D03*
X010180Y011680D03*
X011180Y011680D03*
X012180Y011680D03*
X013180Y011680D03*
X014180Y011680D03*
X015180Y011680D03*
X016180Y011680D03*
X017180Y011680D03*
X018180Y011680D03*
X019180Y011680D03*
X020180Y011680D03*
X021180Y011680D03*
X022180Y011680D03*
D12*
X025180Y010680D02*
X025680Y011180D01*
X025680Y011680D01*
X025680Y012680D01*
X026680Y012680D02*
X026680Y013180D01*
X026180Y013680D01*
X016180Y013680D01*
X017180Y012680D01*
X017180Y011680D02*
X017180Y011180D01*
X017680Y010680D01*
X025180Y010680D01*
X026680Y009680D02*
X027680Y010680D01*
X027680Y011680D01*
X028680Y011680D02*
X028680Y009680D01*
X027680Y008680D01*
X007180Y008680D01*
X006180Y009680D01*
X006180Y011680D01*
X007180Y011680D02*
X007180Y010680D01*
X008180Y009680D01*
X026680Y009680D01*
X028680Y007680D02*
X029680Y008680D01*
X029680Y011680D01*
X030680Y011680D02*
X030680Y007680D01*
X029680Y006680D01*
X005180Y006680D01*
X004180Y007680D01*
X004180Y011680D01*
X003180Y011680D02*
X003180Y006680D01*
X004180Y005680D01*
X030680Y005680D01*
X031680Y006680D01*
X031680Y011680D01*
X030680Y012680D02*
X030680Y016680D01*
X029680Y017680D01*
X004680Y017680D01*
X003180Y016180D01*
X003180Y012680D01*
X004180Y012680D02*
X004180Y015680D01*
X005180Y016680D01*
X028680Y016680D01*
X029680Y015680D01*
X029680Y012680D01*
X028680Y012680D02*
X028680Y014680D01*
X027680Y015680D01*
X006180Y015680D01*
X005180Y014680D01*
X005180Y012680D01*
X006180Y012680D02*
X006180Y013680D01*
X007180Y014680D01*
X026680Y014680D01*
X027680Y013680D01*
X027680Y012680D01*
X026680Y012680D02*
X026680Y011680D01*
X028680Y007680D02*
X006180Y007680D01*
X005180Y008680D01*
X005180Y011680D01*
X008180Y012680D02*
X008180Y013180D01*
X008680Y013680D01*
X016180Y013680D01*
D13*
X001840Y018390D02*
X001840Y003340D01*
X036012Y003340D01*
X036012Y018390D01*
X001840Y018390D01*
X001840Y018284D02*
X036012Y018284D01*
X036012Y018125D02*
X001840Y018125D01*
X001840Y017967D02*
X036012Y017967D01*
X036012Y017808D02*
X029948Y017808D01*
X029839Y017917D02*
X029736Y017960D01*
X004624Y017960D01*
X004521Y017917D01*
X004443Y017839D01*
X004443Y017839D01*
X003021Y016417D01*
X002943Y016339D01*
X002900Y016236D01*
X002900Y013051D01*
X002720Y012871D01*
X002720Y012489D01*
X002989Y012220D01*
X003371Y012220D01*
X003640Y012489D01*
X003640Y012871D01*
X003460Y013051D01*
X003460Y016064D01*
X004796Y017400D01*
X029564Y017400D01*
X030400Y016564D01*
X030400Y013150D01*
X030180Y012930D01*
X029960Y013150D01*
X029960Y015736D01*
X029917Y015839D01*
X028839Y016917D01*
X028736Y016960D01*
X005124Y016960D01*
X005021Y016917D01*
X004943Y016839D01*
X004021Y015917D01*
X003943Y015839D01*
X003900Y015736D01*
X003900Y013051D01*
X003720Y012871D01*
X003720Y012489D01*
X003989Y012220D01*
X004371Y012220D01*
X004640Y012489D01*
X004640Y012871D01*
X004460Y013051D01*
X004460Y015564D01*
X005296Y016400D01*
X028564Y016400D01*
X029400Y015564D01*
X029400Y013150D01*
X029180Y012930D01*
X028960Y013150D01*
X028960Y014736D01*
X028917Y014839D01*
X027839Y015917D01*
X027736Y015960D01*
X006124Y015960D01*
X006021Y015917D01*
X005943Y015839D01*
X005021Y014917D01*
X004943Y014839D01*
X004900Y014736D01*
X004900Y013051D01*
X004720Y012871D01*
X004720Y012489D01*
X004989Y012220D01*
X005371Y012220D01*
X005640Y012489D01*
X005640Y012871D01*
X005460Y013051D01*
X005460Y014564D01*
X006296Y015400D01*
X027564Y015400D01*
X028400Y014564D01*
X028400Y013150D01*
X028180Y012930D01*
X027960Y013150D01*
X027960Y013736D01*
X027917Y013839D01*
X026839Y014917D01*
X026736Y014960D01*
X007124Y014960D01*
X007021Y014917D01*
X006943Y014839D01*
X006021Y013917D01*
X005943Y013839D01*
X005900Y013736D01*
X005900Y013051D01*
X005720Y012871D01*
X005720Y012489D01*
X005989Y012220D01*
X006371Y012220D01*
X006640Y012489D01*
X006640Y012871D01*
X006460Y013051D01*
X006460Y013564D01*
X007296Y014400D01*
X026564Y014400D01*
X027400Y013564D01*
X027400Y013150D01*
X027194Y012944D01*
X026908Y013230D01*
X026700Y013230D01*
X026700Y012700D01*
X026660Y012700D01*
X026660Y013230D01*
X026452Y013230D01*
X026166Y012944D01*
X025900Y013210D01*
X025460Y013210D01*
X025150Y012900D01*
X025150Y012460D01*
X025400Y012210D01*
X025400Y012150D01*
X025150Y011900D01*
X025150Y011460D01*
X025357Y011253D01*
X025064Y010960D01*
X017796Y010960D01*
X017460Y011296D01*
X017460Y011309D01*
X017640Y011489D01*
X017640Y011871D01*
X017371Y012140D01*
X016989Y012140D01*
X016720Y011871D01*
X016720Y011489D01*
X016900Y011309D01*
X016900Y011124D01*
X016943Y011021D01*
X017021Y010943D01*
X017443Y010521D01*
X017521Y010443D01*
X017624Y010400D01*
X025236Y010400D01*
X025339Y010443D01*
X025917Y011021D01*
X025960Y011124D01*
X025960Y011210D01*
X026166Y011416D01*
X026452Y011130D01*
X026660Y011130D01*
X026660Y011660D01*
X026700Y011660D01*
X026700Y011130D01*
X026908Y011130D01*
X027194Y011416D01*
X027400Y011210D01*
X027400Y010796D01*
X026564Y009960D01*
X008296Y009960D01*
X007460Y010796D01*
X007460Y011309D01*
X007640Y011489D01*
X007640Y011871D01*
X007371Y012140D01*
X006989Y012140D01*
X006720Y011871D01*
X006720Y011489D01*
X006900Y011309D01*
X006900Y010624D01*
X006943Y010521D01*
X007021Y010443D01*
X007943Y009521D01*
X008021Y009443D01*
X008124Y009400D01*
X026736Y009400D01*
X026839Y009443D01*
X026917Y009521D01*
X026917Y009521D01*
X027917Y010521D01*
X027960Y010624D01*
X027960Y011210D01*
X028180Y011430D01*
X028400Y011210D01*
X028400Y009796D01*
X027564Y008960D01*
X007296Y008960D01*
X006460Y009796D01*
X006460Y011309D01*
X006640Y011489D01*
X006640Y011871D01*
X006371Y012140D01*
X005989Y012140D01*
X005720Y011871D01*
X005720Y011489D01*
X005900Y011309D01*
X005900Y009624D01*
X005943Y009521D01*
X006021Y009443D01*
X006943Y008521D01*
X007021Y008443D01*
X007124Y008400D01*
X027736Y008400D01*
X027839Y008443D01*
X028917Y009521D01*
X028960Y009624D01*
X028960Y011210D01*
X029180Y011430D01*
X029400Y011210D01*
X029400Y008796D01*
X028564Y007960D01*
X006296Y007960D01*
X005460Y008796D01*
X005460Y011309D01*
X005640Y011489D01*
X005640Y011871D01*
X005371Y012140D01*
X004989Y012140D01*
X004720Y011871D01*
X004720Y011489D01*
X004900Y011309D01*
X004900Y008624D01*
X004943Y008521D01*
X005021Y008443D01*
X005943Y007521D01*
X006021Y007443D01*
X006124Y007400D01*
X028736Y007400D01*
X028839Y007443D01*
X029917Y008521D01*
X029960Y008624D01*
X029960Y011210D01*
X030180Y011430D01*
X030400Y011210D01*
X030400Y007796D01*
X029564Y006960D01*
X005296Y006960D01*
X004460Y007796D01*
X004460Y011309D01*
X004640Y011489D01*
X004640Y011871D01*
X004371Y012140D01*
X003989Y012140D01*
X003720Y011871D01*
X003720Y011489D01*
X003900Y011309D01*
X003900Y007624D01*
X003943Y007521D01*
X004021Y007443D01*
X004943Y006521D01*
X005021Y006443D01*
X005124Y006400D01*
X029736Y006400D01*
X029839Y006443D01*
X030917Y007521D01*
X030960Y007624D01*
X030960Y011210D01*
X031180Y011430D01*
X031400Y011210D01*
X031400Y006796D01*
X030564Y005960D01*
X004296Y005960D01*
X003460Y006796D01*
X003460Y011309D01*
X003640Y011489D01*
X003640Y011871D01*
X003371Y012140D01*
X002989Y012140D01*
X002720Y011871D01*
X002720Y011489D01*
X002900Y011309D01*
X002900Y006624D01*
X002943Y006521D01*
X003021Y006443D01*
X003943Y005521D01*
X004021Y005443D01*
X004124Y005400D01*
X030736Y005400D01*
X030839Y005443D01*
X031917Y006521D01*
X031960Y006624D01*
X031960Y011210D01*
X032180Y011430D01*
X032460Y011150D01*
X032900Y011150D01*
X033180Y011430D01*
X033460Y011150D01*
X033900Y011150D01*
X034180Y011430D01*
X034460Y011150D01*
X034900Y011150D01*
X035210Y011460D01*
X035210Y011900D01*
X034930Y012180D01*
X035210Y012460D01*
X035210Y012900D01*
X034900Y013210D01*
X034460Y013210D01*
X034180Y012930D01*
X033900Y013210D01*
X033460Y013210D01*
X033180Y012930D01*
X032900Y013210D01*
X032460Y013210D01*
X032180Y012930D01*
X031900Y013210D01*
X031460Y013210D01*
X031180Y012930D01*
X030960Y013150D01*
X030960Y016736D01*
X030917Y016839D01*
X029839Y017917D01*
X030106Y017650D02*
X036012Y017650D01*
X036012Y017491D02*
X030265Y017491D01*
X030423Y017333D02*
X036012Y017333D01*
X036012Y017174D02*
X030582Y017174D01*
X030740Y017016D02*
X036012Y017016D01*
X036012Y016857D02*
X030899Y016857D01*
X030960Y016699D02*
X036012Y016699D01*
X036012Y016540D02*
X030960Y016540D01*
X030960Y016382D02*
X036012Y016382D01*
X036012Y016223D02*
X030960Y016223D01*
X030960Y016065D02*
X036012Y016065D01*
X036012Y015906D02*
X030960Y015906D01*
X030960Y015748D02*
X036012Y015748D01*
X036012Y015589D02*
X030960Y015589D01*
X030960Y015431D02*
X036012Y015431D01*
X036012Y015272D02*
X030960Y015272D01*
X030960Y015114D02*
X036012Y015114D01*
X036012Y014955D02*
X030960Y014955D01*
X030960Y014797D02*
X036012Y014797D01*
X036012Y014638D02*
X030960Y014638D01*
X030960Y014480D02*
X036012Y014480D01*
X036012Y014321D02*
X030960Y014321D01*
X030960Y014163D02*
X036012Y014163D01*
X036012Y014004D02*
X030960Y014004D01*
X030960Y013846D02*
X036012Y013846D01*
X036012Y013687D02*
X030960Y013687D01*
X030960Y013529D02*
X036012Y013529D01*
X036012Y013370D02*
X030960Y013370D01*
X030960Y013212D02*
X036012Y013212D01*
X036012Y013053D02*
X035056Y013053D01*
X035210Y012895D02*
X036012Y012895D01*
X036012Y012736D02*
X035210Y012736D01*
X035210Y012578D02*
X036012Y012578D01*
X036012Y012419D02*
X035169Y012419D01*
X035010Y012261D02*
X036012Y012261D01*
X036012Y012102D02*
X035007Y012102D01*
X035166Y011944D02*
X036012Y011944D01*
X036012Y011785D02*
X035210Y011785D01*
X035210Y011627D02*
X036012Y011627D01*
X036012Y011468D02*
X035210Y011468D01*
X035059Y011310D02*
X036012Y011310D01*
X036012Y011151D02*
X034901Y011151D01*
X034459Y011151D02*
X033901Y011151D01*
X034059Y011310D02*
X034301Y011310D01*
X033459Y011151D02*
X032901Y011151D01*
X033059Y011310D02*
X033301Y011310D01*
X032459Y011151D02*
X031960Y011151D01*
X031960Y010993D02*
X036012Y010993D01*
X036012Y010834D02*
X031960Y010834D01*
X031960Y010676D02*
X036012Y010676D01*
X036012Y010517D02*
X031960Y010517D01*
X031960Y010359D02*
X036012Y010359D01*
X036012Y010200D02*
X031960Y010200D01*
X031960Y010042D02*
X036012Y010042D01*
X036012Y009883D02*
X031960Y009883D01*
X031960Y009725D02*
X036012Y009725D01*
X036012Y009566D02*
X031960Y009566D01*
X031960Y009408D02*
X036012Y009408D01*
X036012Y009249D02*
X031960Y009249D01*
X031960Y009091D02*
X036012Y009091D01*
X036012Y008932D02*
X031960Y008932D01*
X031960Y008774D02*
X036012Y008774D01*
X036012Y008615D02*
X031960Y008615D01*
X031960Y008457D02*
X036012Y008457D01*
X036012Y008298D02*
X031960Y008298D01*
X031960Y008140D02*
X036012Y008140D01*
X036012Y007981D02*
X031960Y007981D01*
X031960Y007823D02*
X036012Y007823D01*
X036012Y007664D02*
X031960Y007664D01*
X031960Y007506D02*
X036012Y007506D01*
X036012Y007347D02*
X031960Y007347D01*
X031960Y007189D02*
X036012Y007189D01*
X036012Y007030D02*
X031960Y007030D01*
X031960Y006872D02*
X036012Y006872D01*
X036012Y006713D02*
X031960Y006713D01*
X031931Y006555D02*
X036012Y006555D01*
X036012Y006396D02*
X031792Y006396D01*
X031634Y006238D02*
X036012Y006238D01*
X036012Y006079D02*
X031475Y006079D01*
X031317Y005921D02*
X036012Y005921D01*
X036012Y005762D02*
X031158Y005762D01*
X031000Y005604D02*
X036012Y005604D01*
X036012Y005445D02*
X030841Y005445D01*
X030683Y006079D02*
X004177Y006079D01*
X004018Y006238D02*
X030842Y006238D01*
X031000Y006396D02*
X003860Y006396D01*
X003701Y006555D02*
X004909Y006555D01*
X004751Y006713D02*
X003543Y006713D01*
X003460Y006872D02*
X004592Y006872D01*
X004434Y007030D02*
X003460Y007030D01*
X003460Y007189D02*
X004275Y007189D01*
X004117Y007347D02*
X003460Y007347D01*
X003460Y007506D02*
X003958Y007506D01*
X003900Y007664D02*
X003460Y007664D01*
X003460Y007823D02*
X003900Y007823D01*
X003900Y007981D02*
X003460Y007981D01*
X003460Y008140D02*
X003900Y008140D01*
X003900Y008298D02*
X003460Y008298D01*
X003460Y008457D02*
X003900Y008457D01*
X003900Y008615D02*
X003460Y008615D01*
X003460Y008774D02*
X003900Y008774D01*
X003900Y008932D02*
X003460Y008932D01*
X003460Y009091D02*
X003900Y009091D01*
X003900Y009249D02*
X003460Y009249D01*
X003460Y009408D02*
X003900Y009408D01*
X003900Y009566D02*
X003460Y009566D01*
X003460Y009725D02*
X003900Y009725D01*
X003900Y009883D02*
X003460Y009883D01*
X003460Y010042D02*
X003900Y010042D01*
X003900Y010200D02*
X003460Y010200D01*
X003460Y010359D02*
X003900Y010359D01*
X003900Y010517D02*
X003460Y010517D01*
X003460Y010676D02*
X003900Y010676D01*
X003900Y010834D02*
X003460Y010834D01*
X003460Y010993D02*
X003900Y010993D01*
X003900Y011151D02*
X003460Y011151D01*
X003460Y011310D02*
X003900Y011310D01*
X003741Y011468D02*
X003619Y011468D01*
X003640Y011627D02*
X003720Y011627D01*
X003720Y011785D02*
X003640Y011785D01*
X003567Y011944D02*
X003793Y011944D01*
X003951Y012102D02*
X003409Y012102D01*
X003411Y012261D02*
X003949Y012261D01*
X003790Y012419D02*
X003570Y012419D01*
X003640Y012578D02*
X003720Y012578D01*
X003720Y012736D02*
X003640Y012736D01*
X003616Y012895D02*
X003744Y012895D01*
X003900Y013053D02*
X003460Y013053D01*
X003460Y013212D02*
X003900Y013212D01*
X003900Y013370D02*
X003460Y013370D01*
X003460Y013529D02*
X003900Y013529D01*
X003900Y013687D02*
X003460Y013687D01*
X003460Y013846D02*
X003900Y013846D01*
X003900Y014004D02*
X003460Y014004D01*
X003460Y014163D02*
X003900Y014163D01*
X003900Y014321D02*
X003460Y014321D01*
X003460Y014480D02*
X003900Y014480D01*
X003900Y014638D02*
X003460Y014638D01*
X003460Y014797D02*
X003900Y014797D01*
X003900Y014955D02*
X003460Y014955D01*
X003460Y015114D02*
X003900Y015114D01*
X003900Y015272D02*
X003460Y015272D01*
X003460Y015431D02*
X003900Y015431D01*
X003900Y015589D02*
X003460Y015589D01*
X003460Y015748D02*
X003905Y015748D01*
X004010Y015906D02*
X003460Y015906D01*
X003461Y016065D02*
X004169Y016065D01*
X004327Y016223D02*
X003619Y016223D01*
X003778Y016382D02*
X004486Y016382D01*
X004644Y016540D02*
X003936Y016540D01*
X004095Y016699D02*
X004803Y016699D01*
X004961Y016857D02*
X004253Y016857D01*
X004412Y017016D02*
X029948Y017016D01*
X029790Y017174D02*
X004570Y017174D01*
X004729Y017333D02*
X029631Y017333D01*
X030107Y016857D02*
X028899Y016857D01*
X029057Y016699D02*
X030265Y016699D01*
X030400Y016540D02*
X029216Y016540D01*
X029374Y016382D02*
X030400Y016382D01*
X030400Y016223D02*
X029533Y016223D01*
X029691Y016065D02*
X030400Y016065D01*
X030400Y015906D02*
X029850Y015906D01*
X029955Y015748D02*
X030400Y015748D01*
X030400Y015589D02*
X029960Y015589D01*
X029960Y015431D02*
X030400Y015431D01*
X030400Y015272D02*
X029960Y015272D01*
X029960Y015114D02*
X030400Y015114D01*
X030400Y014955D02*
X029960Y014955D01*
X029960Y014797D02*
X030400Y014797D01*
X030400Y014638D02*
X029960Y014638D01*
X029960Y014480D02*
X030400Y014480D01*
X030400Y014321D02*
X029960Y014321D01*
X029960Y014163D02*
X030400Y014163D01*
X030400Y014004D02*
X029960Y014004D01*
X029960Y013846D02*
X030400Y013846D01*
X030400Y013687D02*
X029960Y013687D01*
X029960Y013529D02*
X030400Y013529D01*
X030400Y013370D02*
X029960Y013370D01*
X029960Y013212D02*
X030400Y013212D01*
X030304Y013053D02*
X030056Y013053D01*
X029400Y013212D02*
X028960Y013212D01*
X028960Y013370D02*
X029400Y013370D01*
X029400Y013529D02*
X028960Y013529D01*
X028960Y013687D02*
X029400Y013687D01*
X029400Y013846D02*
X028960Y013846D01*
X028960Y014004D02*
X029400Y014004D01*
X029400Y014163D02*
X028960Y014163D01*
X028960Y014321D02*
X029400Y014321D01*
X029400Y014480D02*
X028960Y014480D01*
X028960Y014638D02*
X029400Y014638D01*
X029400Y014797D02*
X028935Y014797D01*
X028801Y014955D02*
X029400Y014955D01*
X029400Y015114D02*
X028642Y015114D01*
X028484Y015272D02*
X029400Y015272D01*
X029400Y015431D02*
X028325Y015431D01*
X028167Y015589D02*
X029375Y015589D01*
X029216Y015748D02*
X028008Y015748D01*
X027850Y015906D02*
X029058Y015906D01*
X028899Y016065D02*
X004961Y016065D01*
X005119Y016223D02*
X028741Y016223D01*
X028582Y016382D02*
X005278Y016382D01*
X004802Y015906D02*
X006010Y015906D01*
X005852Y015748D02*
X004644Y015748D01*
X004485Y015589D02*
X005693Y015589D01*
X005535Y015431D02*
X004460Y015431D01*
X004460Y015272D02*
X005376Y015272D01*
X005218Y015114D02*
X004460Y015114D01*
X004460Y014955D02*
X005059Y014955D01*
X004925Y014797D02*
X004460Y014797D01*
X004460Y014638D02*
X004900Y014638D01*
X004900Y014480D02*
X004460Y014480D01*
X004460Y014321D02*
X004900Y014321D01*
X004900Y014163D02*
X004460Y014163D01*
X004460Y014004D02*
X004900Y014004D01*
X004900Y013846D02*
X004460Y013846D01*
X004460Y013687D02*
X004900Y013687D01*
X004900Y013529D02*
X004460Y013529D01*
X004460Y013370D02*
X004900Y013370D01*
X004900Y013212D02*
X004460Y013212D01*
X004460Y013053D02*
X004900Y013053D01*
X004744Y012895D02*
X004616Y012895D01*
X004640Y012736D02*
X004720Y012736D01*
X004720Y012578D02*
X004640Y012578D01*
X004570Y012419D02*
X004790Y012419D01*
X004949Y012261D02*
X004411Y012261D01*
X004409Y012102D02*
X004951Y012102D01*
X004793Y011944D02*
X004567Y011944D01*
X004640Y011785D02*
X004720Y011785D01*
X004720Y011627D02*
X004640Y011627D01*
X004619Y011468D02*
X004741Y011468D01*
X004900Y011310D02*
X004460Y011310D01*
X004460Y011151D02*
X004900Y011151D01*
X004900Y010993D02*
X004460Y010993D01*
X004460Y010834D02*
X004900Y010834D01*
X004900Y010676D02*
X004460Y010676D01*
X004460Y010517D02*
X004900Y010517D01*
X004900Y010359D02*
X004460Y010359D01*
X004460Y010200D02*
X004900Y010200D01*
X004900Y010042D02*
X004460Y010042D01*
X004460Y009883D02*
X004900Y009883D01*
X004900Y009725D02*
X004460Y009725D01*
X004460Y009566D02*
X004900Y009566D01*
X004900Y009408D02*
X004460Y009408D01*
X004460Y009249D02*
X004900Y009249D01*
X004900Y009091D02*
X004460Y009091D01*
X004460Y008932D02*
X004900Y008932D01*
X004900Y008774D02*
X004460Y008774D01*
X004460Y008615D02*
X004904Y008615D01*
X005007Y008457D02*
X004460Y008457D01*
X004460Y008298D02*
X005166Y008298D01*
X005324Y008140D02*
X004460Y008140D01*
X004460Y007981D02*
X005483Y007981D01*
X005641Y007823D02*
X004460Y007823D01*
X004592Y007664D02*
X005800Y007664D01*
X005958Y007506D02*
X004750Y007506D01*
X004909Y007347D02*
X029951Y007347D01*
X029793Y007189D02*
X005067Y007189D01*
X005226Y007030D02*
X029634Y007030D01*
X030268Y006872D02*
X031400Y006872D01*
X031400Y007030D02*
X030426Y007030D01*
X030585Y007189D02*
X031400Y007189D01*
X031400Y007347D02*
X030743Y007347D01*
X030902Y007506D02*
X031400Y007506D01*
X031400Y007664D02*
X030960Y007664D01*
X030960Y007823D02*
X031400Y007823D01*
X031400Y007981D02*
X030960Y007981D01*
X030960Y008140D02*
X031400Y008140D01*
X031400Y008298D02*
X030960Y008298D01*
X030960Y008457D02*
X031400Y008457D01*
X031400Y008615D02*
X030960Y008615D01*
X030960Y008774D02*
X031400Y008774D01*
X031400Y008932D02*
X030960Y008932D01*
X030960Y009091D02*
X031400Y009091D01*
X031400Y009249D02*
X030960Y009249D01*
X030960Y009408D02*
X031400Y009408D01*
X031400Y009566D02*
X030960Y009566D01*
X030960Y009725D02*
X031400Y009725D01*
X031400Y009883D02*
X030960Y009883D01*
X030960Y010042D02*
X031400Y010042D01*
X031400Y010200D02*
X030960Y010200D01*
X030960Y010359D02*
X031400Y010359D01*
X031400Y010517D02*
X030960Y010517D01*
X030960Y010676D02*
X031400Y010676D01*
X031400Y010834D02*
X030960Y010834D01*
X030960Y010993D02*
X031400Y010993D01*
X031400Y011151D02*
X030960Y011151D01*
X031059Y011310D02*
X031301Y011310D01*
X032059Y011310D02*
X032301Y011310D01*
X030400Y011151D02*
X029960Y011151D01*
X029960Y010993D02*
X030400Y010993D01*
X030400Y010834D02*
X029960Y010834D01*
X029960Y010676D02*
X030400Y010676D01*
X030400Y010517D02*
X029960Y010517D01*
X029960Y010359D02*
X030400Y010359D01*
X030400Y010200D02*
X029960Y010200D01*
X029960Y010042D02*
X030400Y010042D01*
X030400Y009883D02*
X029960Y009883D01*
X029960Y009725D02*
X030400Y009725D01*
X030400Y009566D02*
X029960Y009566D01*
X029960Y009408D02*
X030400Y009408D01*
X030400Y009249D02*
X029960Y009249D01*
X029960Y009091D02*
X030400Y009091D01*
X030400Y008932D02*
X029960Y008932D01*
X029960Y008774D02*
X030400Y008774D01*
X030400Y008615D02*
X029956Y008615D01*
X029853Y008457D02*
X030400Y008457D01*
X030400Y008298D02*
X029694Y008298D01*
X029536Y008140D02*
X030400Y008140D01*
X030400Y007981D02*
X029377Y007981D01*
X029219Y007823D02*
X030400Y007823D01*
X030268Y007664D02*
X029060Y007664D01*
X028902Y007506D02*
X030110Y007506D01*
X030109Y006713D02*
X031317Y006713D01*
X031159Y006555D02*
X029951Y006555D01*
X028585Y007981D02*
X006275Y007981D01*
X006116Y008140D02*
X028744Y008140D01*
X028902Y008298D02*
X005958Y008298D01*
X005799Y008457D02*
X007007Y008457D01*
X006849Y008615D02*
X005641Y008615D01*
X005482Y008774D02*
X006690Y008774D01*
X006532Y008932D02*
X005460Y008932D01*
X005460Y009091D02*
X006373Y009091D01*
X006215Y009249D02*
X005460Y009249D01*
X005460Y009408D02*
X006056Y009408D01*
X005924Y009566D02*
X005460Y009566D01*
X005460Y009725D02*
X005900Y009725D01*
X005900Y009883D02*
X005460Y009883D01*
X005460Y010042D02*
X005900Y010042D01*
X005900Y010200D02*
X005460Y010200D01*
X005460Y010359D02*
X005900Y010359D01*
X005900Y010517D02*
X005460Y010517D01*
X005460Y010676D02*
X005900Y010676D01*
X005900Y010834D02*
X005460Y010834D01*
X005460Y010993D02*
X005900Y010993D01*
X005900Y011151D02*
X005460Y011151D01*
X005460Y011310D02*
X005900Y011310D01*
X005741Y011468D02*
X005619Y011468D01*
X005640Y011627D02*
X005720Y011627D01*
X005720Y011785D02*
X005640Y011785D01*
X005567Y011944D02*
X005793Y011944D01*
X005951Y012102D02*
X005409Y012102D01*
X005411Y012261D02*
X005949Y012261D01*
X005790Y012419D02*
X005570Y012419D01*
X005640Y012578D02*
X005720Y012578D01*
X005720Y012736D02*
X005640Y012736D01*
X005616Y012895D02*
X005744Y012895D01*
X005900Y013053D02*
X005460Y013053D01*
X005460Y013212D02*
X005900Y013212D01*
X005900Y013370D02*
X005460Y013370D01*
X005460Y013529D02*
X005900Y013529D01*
X005900Y013687D02*
X005460Y013687D01*
X005460Y013846D02*
X005950Y013846D01*
X006108Y014004D02*
X005460Y014004D01*
X005460Y014163D02*
X006267Y014163D01*
X006425Y014321D02*
X005460Y014321D01*
X005460Y014480D02*
X006584Y014480D01*
X006742Y014638D02*
X005534Y014638D01*
X005693Y014797D02*
X006901Y014797D01*
X007112Y014955D02*
X005851Y014955D01*
X006010Y015114D02*
X027850Y015114D01*
X027692Y015272D02*
X006168Y015272D01*
X007217Y014321D02*
X026643Y014321D01*
X026801Y014163D02*
X007059Y014163D01*
X006900Y014004D02*
X026960Y014004D01*
X027118Y013846D02*
X006742Y013846D01*
X006583Y013687D02*
X027277Y013687D01*
X027400Y013529D02*
X006460Y013529D01*
X006460Y013370D02*
X027400Y013370D01*
X027400Y013212D02*
X026926Y013212D01*
X027085Y013053D02*
X027304Y013053D01*
X027960Y013212D02*
X028400Y013212D01*
X028400Y013370D02*
X027960Y013370D01*
X027960Y013529D02*
X028400Y013529D01*
X028400Y013687D02*
X027960Y013687D01*
X027910Y013846D02*
X028400Y013846D01*
X028400Y014004D02*
X027752Y014004D01*
X027593Y014163D02*
X028400Y014163D01*
X028400Y014321D02*
X027435Y014321D01*
X027276Y014480D02*
X028400Y014480D01*
X028326Y014638D02*
X027118Y014638D01*
X026959Y014797D02*
X028167Y014797D01*
X028009Y014955D02*
X026748Y014955D01*
X026700Y013212D02*
X026660Y013212D01*
X026660Y013053D02*
X026700Y013053D01*
X026700Y012895D02*
X026660Y012895D01*
X026660Y012736D02*
X026700Y012736D01*
X026700Y012660D02*
X026700Y012130D01*
X026700Y011700D01*
X026660Y011700D01*
X026660Y012660D01*
X026700Y012660D01*
X026700Y012578D02*
X026660Y012578D01*
X026660Y012419D02*
X026700Y012419D01*
X026700Y012261D02*
X026660Y012261D01*
X026660Y012102D02*
X026700Y012102D01*
X026700Y011944D02*
X026660Y011944D01*
X026660Y011785D02*
X026700Y011785D01*
X026700Y011627D02*
X026660Y011627D01*
X026660Y011468D02*
X026700Y011468D01*
X026700Y011310D02*
X026660Y011310D01*
X026660Y011151D02*
X026700Y011151D01*
X026929Y011151D02*
X027400Y011151D01*
X027400Y010993D02*
X025889Y010993D01*
X025960Y011151D02*
X026431Y011151D01*
X026273Y011310D02*
X026059Y011310D01*
X025730Y010834D02*
X027400Y010834D01*
X027280Y010676D02*
X025572Y010676D01*
X025413Y010517D02*
X027121Y010517D01*
X026963Y010359D02*
X007897Y010359D01*
X007739Y010517D02*
X017447Y010517D01*
X017288Y010676D02*
X007580Y010676D01*
X007460Y010834D02*
X017130Y010834D01*
X016971Y010993D02*
X007460Y010993D01*
X007460Y011151D02*
X016900Y011151D01*
X016900Y011310D02*
X016460Y011310D01*
X016371Y011220D02*
X016640Y011489D01*
X016640Y011871D01*
X016371Y012140D01*
X015989Y012140D01*
X015720Y011871D01*
X015720Y011489D01*
X015989Y011220D01*
X016371Y011220D01*
X016619Y011468D02*
X016741Y011468D01*
X016720Y011627D02*
X016640Y011627D01*
X016640Y011785D02*
X016720Y011785D01*
X016793Y011944D02*
X016567Y011944D01*
X016409Y012102D02*
X016951Y012102D01*
X016981Y012200D02*
X017160Y012200D01*
X017160Y012660D01*
X017200Y012660D01*
X017200Y012700D01*
X017660Y012700D01*
X017660Y012879D01*
X017379Y013160D01*
X017200Y013160D01*
X017200Y012700D01*
X017160Y012700D01*
X017160Y013160D01*
X016981Y013160D01*
X016700Y012879D01*
X016700Y012700D01*
X017160Y012700D01*
X017160Y012660D01*
X016700Y012660D01*
X016700Y012481D01*
X016981Y012200D01*
X016921Y012261D02*
X016411Y012261D01*
X016371Y012220D02*
X016640Y012489D01*
X016640Y012871D01*
X016371Y013140D01*
X015989Y013140D01*
X015720Y012871D01*
X015720Y012489D01*
X015989Y012220D01*
X016371Y012220D01*
X016570Y012419D02*
X016762Y012419D01*
X016700Y012578D02*
X016640Y012578D01*
X016640Y012736D02*
X016700Y012736D01*
X016716Y012895D02*
X016616Y012895D01*
X016458Y013053D02*
X016874Y013053D01*
X017160Y013053D02*
X017200Y013053D01*
X017200Y012895D02*
X017160Y012895D01*
X017160Y012736D02*
X017200Y012736D01*
X017200Y012660D02*
X017660Y012660D01*
X017660Y012481D01*
X017379Y012200D01*
X017200Y012200D01*
X017200Y012660D01*
X017200Y012578D02*
X017160Y012578D01*
X017160Y012419D02*
X017200Y012419D01*
X017200Y012261D02*
X017160Y012261D01*
X017439Y012261D02*
X017949Y012261D01*
X017989Y012220D02*
X018371Y012220D01*
X018640Y012489D01*
X018640Y012871D01*
X018371Y013140D01*
X017989Y013140D01*
X017720Y012871D01*
X017720Y012489D01*
X017989Y012220D01*
X017989Y012140D02*
X017720Y011871D01*
X017720Y011489D01*
X017989Y011220D01*
X018371Y011220D01*
X018640Y011489D01*
X018640Y011871D01*
X018371Y012140D01*
X017989Y012140D01*
X017951Y012102D02*
X017409Y012102D01*
X017567Y011944D02*
X017793Y011944D01*
X017720Y011785D02*
X017640Y011785D01*
X017640Y011627D02*
X017720Y011627D01*
X017741Y011468D02*
X017619Y011468D01*
X017460Y011310D02*
X017900Y011310D01*
X017605Y011151D02*
X025255Y011151D01*
X025301Y011310D02*
X022460Y011310D01*
X022371Y011220D02*
X022640Y011489D01*
X022640Y011871D01*
X022371Y012140D01*
X021989Y012140D01*
X021720Y011871D01*
X021720Y011489D01*
X021989Y011220D01*
X022371Y011220D01*
X022619Y011468D02*
X025150Y011468D01*
X025150Y011627D02*
X022640Y011627D01*
X022640Y011785D02*
X025150Y011785D01*
X025194Y011944D02*
X022567Y011944D01*
X022409Y012102D02*
X025353Y012102D01*
X025350Y012261D02*
X022411Y012261D01*
X022371Y012220D02*
X022640Y012489D01*
X022640Y012871D01*
X022371Y013140D01*
X021989Y013140D01*
X021720Y012871D01*
X021720Y012489D01*
X021989Y012220D01*
X022371Y012220D01*
X022570Y012419D02*
X025191Y012419D01*
X025150Y012578D02*
X022640Y012578D01*
X022640Y012736D02*
X025150Y012736D01*
X025150Y012895D02*
X022616Y012895D01*
X022458Y013053D02*
X025304Y013053D01*
X026056Y013053D02*
X026275Y013053D01*
X026434Y013212D02*
X006460Y013212D01*
X006460Y013053D02*
X006902Y013053D01*
X006989Y013140D02*
X006720Y012871D01*
X006720Y012489D01*
X006989Y012220D01*
X007371Y012220D01*
X007640Y012489D01*
X007640Y012871D01*
X007371Y013140D01*
X006989Y013140D01*
X007458Y013053D02*
X007874Y013053D01*
X007981Y013160D02*
X007700Y012879D01*
X007700Y012700D01*
X008160Y012700D01*
X008160Y013160D01*
X007981Y013160D01*
X008160Y013053D02*
X008200Y013053D01*
X008200Y013160D02*
X008379Y013160D01*
X008660Y012879D01*
X008660Y012700D01*
X008200Y012700D01*
X008200Y012660D01*
X008660Y012660D01*
X008660Y012481D01*
X008379Y012200D01*
X008200Y012200D01*
X008200Y012660D01*
X008160Y012660D01*
X008160Y012200D01*
X007981Y012200D01*
X007700Y012481D01*
X007700Y012660D01*
X008160Y012660D01*
X008160Y012700D01*
X008200Y012700D01*
X008200Y013160D01*
X008486Y013053D02*
X008902Y013053D01*
X008989Y013140D02*
X008720Y012871D01*
X008720Y012489D01*
X008989Y012220D01*
X009371Y012220D01*
X009640Y012489D01*
X009640Y012871D01*
X009371Y013140D01*
X008989Y013140D01*
X009458Y013053D02*
X009902Y013053D01*
X009989Y013140D02*
X009720Y012871D01*
X009720Y012489D01*
X009989Y012220D01*
X010371Y012220D01*
X010640Y012489D01*
X010640Y012871D01*
X010371Y013140D01*
X009989Y013140D01*
X010458Y013053D02*
X010902Y013053D01*
X010989Y013140D02*
X010720Y012871D01*
X010720Y012489D01*
X010989Y012220D01*
X011371Y012220D01*
X011640Y012489D01*
X011640Y012871D01*
X011371Y013140D01*
X010989Y013140D01*
X011458Y013053D02*
X011902Y013053D01*
X011989Y013140D02*
X011720Y012871D01*
X011720Y012489D01*
X011989Y012220D01*
X012371Y012220D01*
X012640Y012489D01*
X012640Y012871D01*
X012371Y013140D01*
X011989Y013140D01*
X012458Y013053D02*
X012902Y013053D01*
X012989Y013140D02*
X012720Y012871D01*
X012720Y012489D01*
X012989Y012220D01*
X013371Y012220D01*
X013640Y012489D01*
X013640Y012871D01*
X013371Y013140D01*
X012989Y013140D01*
X012744Y012895D02*
X012616Y012895D01*
X012640Y012736D02*
X012720Y012736D01*
X012720Y012578D02*
X012640Y012578D01*
X012570Y012419D02*
X012790Y012419D01*
X012949Y012261D02*
X012411Y012261D01*
X012371Y012140D02*
X011989Y012140D01*
X011720Y011871D01*
X011720Y011489D01*
X011989Y011220D01*
X012371Y011220D01*
X012640Y011489D01*
X012640Y011871D01*
X012371Y012140D01*
X012409Y012102D02*
X012951Y012102D01*
X012989Y012140D02*
X012720Y011871D01*
X012720Y011489D01*
X012989Y011220D01*
X013371Y011220D01*
X013640Y011489D01*
X013640Y011871D01*
X013371Y012140D01*
X012989Y012140D01*
X012793Y011944D02*
X012567Y011944D01*
X012640Y011785D02*
X012720Y011785D01*
X012720Y011627D02*
X012640Y011627D01*
X012619Y011468D02*
X012741Y011468D01*
X012900Y011310D02*
X012460Y011310D01*
X011900Y011310D02*
X011460Y011310D01*
X011371Y011220D02*
X011640Y011489D01*
X011640Y011871D01*
X011371Y012140D01*
X010989Y012140D01*
X010720Y011871D01*
X010720Y011489D01*
X010989Y011220D01*
X011371Y011220D01*
X011619Y011468D02*
X011741Y011468D01*
X011720Y011627D02*
X011640Y011627D01*
X011640Y011785D02*
X011720Y011785D01*
X011793Y011944D02*
X011567Y011944D01*
X011409Y012102D02*
X011951Y012102D01*
X011949Y012261D02*
X011411Y012261D01*
X011570Y012419D02*
X011790Y012419D01*
X011720Y012578D02*
X011640Y012578D01*
X011640Y012736D02*
X011720Y012736D01*
X011744Y012895D02*
X011616Y012895D01*
X010744Y012895D02*
X010616Y012895D01*
X010640Y012736D02*
X010720Y012736D01*
X010720Y012578D02*
X010640Y012578D01*
X010570Y012419D02*
X010790Y012419D01*
X010949Y012261D02*
X010411Y012261D01*
X010371Y012140D02*
X009989Y012140D01*
X009720Y011871D01*
X009720Y011489D01*
X009989Y011220D01*
X010371Y011220D01*
X010640Y011489D01*
X010640Y011871D01*
X010371Y012140D01*
X010409Y012102D02*
X010951Y012102D01*
X010793Y011944D02*
X010567Y011944D01*
X010640Y011785D02*
X010720Y011785D01*
X010720Y011627D02*
X010640Y011627D01*
X010619Y011468D02*
X010741Y011468D01*
X010900Y011310D02*
X010460Y011310D01*
X009900Y011310D02*
X009460Y011310D01*
X009371Y011220D02*
X009640Y011489D01*
X009640Y011871D01*
X009371Y012140D01*
X008989Y012140D01*
X008720Y011871D01*
X008720Y011489D01*
X008989Y011220D01*
X009371Y011220D01*
X009619Y011468D02*
X009741Y011468D01*
X009720Y011627D02*
X009640Y011627D01*
X009640Y011785D02*
X009720Y011785D01*
X009793Y011944D02*
X009567Y011944D01*
X009409Y012102D02*
X009951Y012102D01*
X009949Y012261D02*
X009411Y012261D01*
X009570Y012419D02*
X009790Y012419D01*
X009720Y012578D02*
X009640Y012578D01*
X009640Y012736D02*
X009720Y012736D01*
X009744Y012895D02*
X009616Y012895D01*
X008744Y012895D02*
X008644Y012895D01*
X008660Y012736D02*
X008720Y012736D01*
X008720Y012578D02*
X008660Y012578D01*
X008598Y012419D02*
X008790Y012419D01*
X008949Y012261D02*
X008439Y012261D01*
X008371Y012140D02*
X007989Y012140D01*
X007720Y011871D01*
X007720Y011489D01*
X007989Y011220D01*
X008371Y011220D01*
X008640Y011489D01*
X008640Y011871D01*
X008371Y012140D01*
X008409Y012102D02*
X008951Y012102D01*
X008793Y011944D02*
X008567Y011944D01*
X008640Y011785D02*
X008720Y011785D01*
X008720Y011627D02*
X008640Y011627D01*
X008619Y011468D02*
X008741Y011468D01*
X008900Y011310D02*
X008460Y011310D01*
X007900Y011310D02*
X007460Y011310D01*
X007619Y011468D02*
X007741Y011468D01*
X007720Y011627D02*
X007640Y011627D01*
X007640Y011785D02*
X007720Y011785D01*
X007793Y011944D02*
X007567Y011944D01*
X007409Y012102D02*
X007951Y012102D01*
X007921Y012261D02*
X007411Y012261D01*
X007570Y012419D02*
X007762Y012419D01*
X007700Y012578D02*
X007640Y012578D01*
X007640Y012736D02*
X007700Y012736D01*
X007716Y012895D02*
X007616Y012895D01*
X008160Y012895D02*
X008200Y012895D01*
X008200Y012736D02*
X008160Y012736D01*
X008160Y012578D02*
X008200Y012578D01*
X008200Y012419D02*
X008160Y012419D01*
X008160Y012261D02*
X008200Y012261D01*
X006949Y012261D02*
X006411Y012261D01*
X006409Y012102D02*
X006951Y012102D01*
X006793Y011944D02*
X006567Y011944D01*
X006640Y011785D02*
X006720Y011785D01*
X006720Y011627D02*
X006640Y011627D01*
X006619Y011468D02*
X006741Y011468D01*
X006900Y011310D02*
X006460Y011310D01*
X006460Y011151D02*
X006900Y011151D01*
X006900Y010993D02*
X006460Y010993D01*
X006460Y010834D02*
X006900Y010834D01*
X006900Y010676D02*
X006460Y010676D01*
X006460Y010517D02*
X006947Y010517D01*
X007105Y010359D02*
X006460Y010359D01*
X006460Y010200D02*
X007264Y010200D01*
X007422Y010042D02*
X006460Y010042D01*
X006460Y009883D02*
X007581Y009883D01*
X007739Y009725D02*
X006531Y009725D01*
X006690Y009566D02*
X007898Y009566D01*
X008106Y009408D02*
X006848Y009408D01*
X007007Y009249D02*
X027853Y009249D01*
X027695Y009091D02*
X007165Y009091D01*
X008214Y010042D02*
X026646Y010042D01*
X026804Y010200D02*
X008056Y010200D01*
X006790Y012419D02*
X006570Y012419D01*
X006640Y012578D02*
X006720Y012578D01*
X006720Y012736D02*
X006640Y012736D01*
X006616Y012895D02*
X006744Y012895D01*
X002900Y013053D02*
X001840Y013053D01*
X001840Y012895D02*
X002744Y012895D01*
X002720Y012736D02*
X001840Y012736D01*
X001840Y012578D02*
X002720Y012578D01*
X002790Y012419D02*
X001840Y012419D01*
X001840Y012261D02*
X002949Y012261D01*
X002951Y012102D02*
X001840Y012102D01*
X001840Y011944D02*
X002793Y011944D01*
X002720Y011785D02*
X001840Y011785D01*
X001840Y011627D02*
X002720Y011627D01*
X002741Y011468D02*
X001840Y011468D01*
X001840Y011310D02*
X002900Y011310D01*
X002900Y011151D02*
X001840Y011151D01*
X001840Y010993D02*
X002900Y010993D01*
X002900Y010834D02*
X001840Y010834D01*
X001840Y010676D02*
X002900Y010676D01*
X002900Y010517D02*
X001840Y010517D01*
X001840Y010359D02*
X002900Y010359D01*
X002900Y010200D02*
X001840Y010200D01*
X001840Y010042D02*
X002900Y010042D01*
X002900Y009883D02*
X001840Y009883D01*
X001840Y009725D02*
X002900Y009725D01*
X002900Y009566D02*
X001840Y009566D01*
X001840Y009408D02*
X002900Y009408D01*
X002900Y009249D02*
X001840Y009249D01*
X001840Y009091D02*
X002900Y009091D01*
X002900Y008932D02*
X001840Y008932D01*
X001840Y008774D02*
X002900Y008774D01*
X002900Y008615D02*
X001840Y008615D01*
X001840Y008457D02*
X002900Y008457D01*
X002900Y008298D02*
X001840Y008298D01*
X001840Y008140D02*
X002900Y008140D01*
X002900Y007981D02*
X001840Y007981D01*
X001840Y007823D02*
X002900Y007823D01*
X002900Y007664D02*
X001840Y007664D01*
X001840Y007506D02*
X002900Y007506D01*
X002900Y007347D02*
X001840Y007347D01*
X001840Y007189D02*
X002900Y007189D01*
X002900Y007030D02*
X001840Y007030D01*
X001840Y006872D02*
X002900Y006872D01*
X002900Y006713D02*
X001840Y006713D01*
X001840Y006555D02*
X002929Y006555D01*
X003068Y006396D02*
X001840Y006396D01*
X001840Y006238D02*
X003226Y006238D01*
X003385Y006079D02*
X001840Y006079D01*
X001840Y005921D02*
X003543Y005921D01*
X003702Y005762D02*
X001840Y005762D01*
X001840Y005604D02*
X003860Y005604D01*
X004019Y005445D02*
X001840Y005445D01*
X001840Y005287D02*
X036012Y005287D01*
X036012Y005128D02*
X001840Y005128D01*
X001840Y004970D02*
X036012Y004970D01*
X036012Y004811D02*
X001840Y004811D01*
X001840Y004653D02*
X036012Y004653D01*
X036012Y004494D02*
X001840Y004494D01*
X001840Y004336D02*
X036012Y004336D01*
X036012Y004177D02*
X001840Y004177D01*
X001840Y004019D02*
X036012Y004019D01*
X036012Y003860D02*
X001840Y003860D01*
X001840Y003702D02*
X036012Y003702D01*
X036012Y003543D02*
X001840Y003543D01*
X001840Y003385D02*
X036012Y003385D01*
X029061Y008457D02*
X027853Y008457D01*
X028011Y008615D02*
X029219Y008615D01*
X029378Y008774D02*
X028170Y008774D01*
X028328Y008932D02*
X029400Y008932D01*
X029400Y009091D02*
X028487Y009091D01*
X028645Y009249D02*
X029400Y009249D01*
X029400Y009408D02*
X028804Y009408D01*
X028936Y009566D02*
X029400Y009566D01*
X029400Y009725D02*
X028960Y009725D01*
X028960Y009883D02*
X029400Y009883D01*
X029400Y010042D02*
X028960Y010042D01*
X028960Y010200D02*
X029400Y010200D01*
X029400Y010359D02*
X028960Y010359D01*
X028960Y010517D02*
X029400Y010517D01*
X029400Y010676D02*
X028960Y010676D01*
X028960Y010834D02*
X029400Y010834D01*
X029400Y010993D02*
X028960Y010993D01*
X028960Y011151D02*
X029400Y011151D01*
X029301Y011310D02*
X029059Y011310D01*
X028400Y011151D02*
X027960Y011151D01*
X027960Y010993D02*
X028400Y010993D01*
X028400Y010834D02*
X027960Y010834D01*
X027960Y010676D02*
X028400Y010676D01*
X028400Y010517D02*
X027913Y010517D01*
X027755Y010359D02*
X028400Y010359D01*
X028400Y010200D02*
X027596Y010200D01*
X027438Y010042D02*
X028400Y010042D01*
X028400Y009883D02*
X027279Y009883D01*
X027121Y009725D02*
X028329Y009725D01*
X028170Y009566D02*
X026962Y009566D01*
X026754Y009408D02*
X028012Y009408D01*
X025097Y010993D02*
X017763Y010993D01*
X018460Y011310D02*
X018900Y011310D01*
X018989Y011220D02*
X019371Y011220D01*
X019640Y011489D01*
X019640Y011871D01*
X019371Y012140D01*
X018989Y012140D01*
X018720Y011871D01*
X018720Y011489D01*
X018989Y011220D01*
X018741Y011468D02*
X018619Y011468D01*
X018640Y011627D02*
X018720Y011627D01*
X018720Y011785D02*
X018640Y011785D01*
X018567Y011944D02*
X018793Y011944D01*
X018951Y012102D02*
X018409Y012102D01*
X018411Y012261D02*
X018949Y012261D01*
X018989Y012220D02*
X019371Y012220D01*
X019640Y012489D01*
X019640Y012871D01*
X019371Y013140D01*
X018989Y013140D01*
X018720Y012871D01*
X018720Y012489D01*
X018989Y012220D01*
X018790Y012419D02*
X018570Y012419D01*
X018640Y012578D02*
X018720Y012578D01*
X018720Y012736D02*
X018640Y012736D01*
X018616Y012895D02*
X018744Y012895D01*
X018902Y013053D02*
X018458Y013053D01*
X017902Y013053D02*
X017486Y013053D01*
X017644Y012895D02*
X017744Y012895D01*
X017720Y012736D02*
X017660Y012736D01*
X017660Y012578D02*
X017720Y012578D01*
X017790Y012419D02*
X017598Y012419D01*
X015949Y012261D02*
X015411Y012261D01*
X015371Y012220D02*
X015640Y012489D01*
X015640Y012871D01*
X015371Y013140D01*
X014989Y013140D01*
X014720Y012871D01*
X014720Y012489D01*
X014989Y012220D01*
X015371Y012220D01*
X015371Y012140D02*
X014989Y012140D01*
X014720Y011871D01*
X014720Y011489D01*
X014989Y011220D01*
X015371Y011220D01*
X015640Y011489D01*
X015640Y011871D01*
X015371Y012140D01*
X015409Y012102D02*
X015951Y012102D01*
X015793Y011944D02*
X015567Y011944D01*
X015640Y011785D02*
X015720Y011785D01*
X015720Y011627D02*
X015640Y011627D01*
X015619Y011468D02*
X015741Y011468D01*
X015900Y011310D02*
X015460Y011310D01*
X014900Y011310D02*
X014460Y011310D01*
X014371Y011220D02*
X014640Y011489D01*
X014640Y011871D01*
X014371Y012140D01*
X013989Y012140D01*
X013720Y011871D01*
X013720Y011489D01*
X013989Y011220D01*
X014371Y011220D01*
X014619Y011468D02*
X014741Y011468D01*
X014720Y011627D02*
X014640Y011627D01*
X014640Y011785D02*
X014720Y011785D01*
X014793Y011944D02*
X014567Y011944D01*
X014409Y012102D02*
X014951Y012102D01*
X014949Y012261D02*
X014411Y012261D01*
X014371Y012220D02*
X014640Y012489D01*
X014640Y012871D01*
X014371Y013140D01*
X013989Y013140D01*
X013720Y012871D01*
X013720Y012489D01*
X013989Y012220D01*
X014371Y012220D01*
X014570Y012419D02*
X014790Y012419D01*
X014720Y012578D02*
X014640Y012578D01*
X014640Y012736D02*
X014720Y012736D01*
X014744Y012895D02*
X014616Y012895D01*
X014458Y013053D02*
X014902Y013053D01*
X015458Y013053D02*
X015902Y013053D01*
X015744Y012895D02*
X015616Y012895D01*
X015640Y012736D02*
X015720Y012736D01*
X015720Y012578D02*
X015640Y012578D01*
X015570Y012419D02*
X015790Y012419D01*
X013949Y012261D02*
X013411Y012261D01*
X013409Y012102D02*
X013951Y012102D01*
X013793Y011944D02*
X013567Y011944D01*
X013640Y011785D02*
X013720Y011785D01*
X013720Y011627D02*
X013640Y011627D01*
X013619Y011468D02*
X013741Y011468D01*
X013900Y011310D02*
X013460Y011310D01*
X013570Y012419D02*
X013790Y012419D01*
X013720Y012578D02*
X013640Y012578D01*
X013640Y012736D02*
X013720Y012736D01*
X013744Y012895D02*
X013616Y012895D01*
X013458Y013053D02*
X013902Y013053D01*
X019458Y013053D02*
X019902Y013053D01*
X019989Y013140D02*
X019720Y012871D01*
X019720Y012489D01*
X019989Y012220D01*
X020371Y012220D01*
X020640Y012489D01*
X020640Y012871D01*
X020371Y013140D01*
X019989Y013140D01*
X020458Y013053D02*
X020902Y013053D01*
X020989Y013140D02*
X020720Y012871D01*
X020720Y012489D01*
X020989Y012220D01*
X021371Y012220D01*
X021640Y012489D01*
X021640Y012871D01*
X021371Y013140D01*
X020989Y013140D01*
X021458Y013053D02*
X021902Y013053D01*
X021744Y012895D02*
X021616Y012895D01*
X021640Y012736D02*
X021720Y012736D01*
X021720Y012578D02*
X021640Y012578D01*
X021570Y012419D02*
X021790Y012419D01*
X021949Y012261D02*
X021411Y012261D01*
X021371Y012140D02*
X020989Y012140D01*
X020720Y011871D01*
X020720Y011489D01*
X020989Y011220D01*
X021371Y011220D01*
X021640Y011489D01*
X021640Y011871D01*
X021371Y012140D01*
X021409Y012102D02*
X021951Y012102D01*
X021793Y011944D02*
X021567Y011944D01*
X021640Y011785D02*
X021720Y011785D01*
X021720Y011627D02*
X021640Y011627D01*
X021619Y011468D02*
X021741Y011468D01*
X021900Y011310D02*
X021460Y011310D01*
X020900Y011310D02*
X020460Y011310D01*
X020371Y011220D02*
X020640Y011489D01*
X020640Y011871D01*
X020371Y012140D01*
X019989Y012140D01*
X019720Y011871D01*
X019720Y011489D01*
X019989Y011220D01*
X020371Y011220D01*
X020619Y011468D02*
X020741Y011468D01*
X020720Y011627D02*
X020640Y011627D01*
X020640Y011785D02*
X020720Y011785D01*
X020793Y011944D02*
X020567Y011944D01*
X020409Y012102D02*
X020951Y012102D01*
X020949Y012261D02*
X020411Y012261D01*
X020570Y012419D02*
X020790Y012419D01*
X020720Y012578D02*
X020640Y012578D01*
X020640Y012736D02*
X020720Y012736D01*
X020744Y012895D02*
X020616Y012895D01*
X019744Y012895D02*
X019616Y012895D01*
X019640Y012736D02*
X019720Y012736D01*
X019720Y012578D02*
X019640Y012578D01*
X019570Y012419D02*
X019790Y012419D01*
X019949Y012261D02*
X019411Y012261D01*
X019409Y012102D02*
X019951Y012102D01*
X019793Y011944D02*
X019567Y011944D01*
X019640Y011785D02*
X019720Y011785D01*
X019720Y011627D02*
X019640Y011627D01*
X019619Y011468D02*
X019741Y011468D01*
X019900Y011310D02*
X019460Y011310D01*
X027087Y011310D02*
X027301Y011310D01*
X028059Y011310D02*
X028301Y011310D01*
X030059Y011310D02*
X030301Y011310D01*
X031056Y013053D02*
X031304Y013053D01*
X032056Y013053D02*
X032304Y013053D01*
X033056Y013053D02*
X033304Y013053D01*
X034056Y013053D02*
X034304Y013053D01*
X029304Y013053D02*
X029056Y013053D01*
X028304Y013053D02*
X028056Y013053D01*
X004412Y017808D02*
X001840Y017808D01*
X001840Y017650D02*
X004254Y017650D01*
X004095Y017491D02*
X001840Y017491D01*
X001840Y017333D02*
X003937Y017333D01*
X003778Y017174D02*
X001840Y017174D01*
X001840Y017016D02*
X003620Y017016D01*
X003461Y016857D02*
X001840Y016857D01*
X001840Y016699D02*
X003303Y016699D01*
X003144Y016540D02*
X001840Y016540D01*
X001840Y016382D02*
X002986Y016382D01*
X003021Y016417D02*
X003021Y016417D01*
X002900Y016223D02*
X001840Y016223D01*
X001840Y016065D02*
X002900Y016065D01*
X002900Y015906D02*
X001840Y015906D01*
X001840Y015748D02*
X002900Y015748D01*
X002900Y015589D02*
X001840Y015589D01*
X001840Y015431D02*
X002900Y015431D01*
X002900Y015272D02*
X001840Y015272D01*
X001840Y015114D02*
X002900Y015114D01*
X002900Y014955D02*
X001840Y014955D01*
X001840Y014797D02*
X002900Y014797D01*
X002900Y014638D02*
X001840Y014638D01*
X001840Y014480D02*
X002900Y014480D01*
X002900Y014321D02*
X001840Y014321D01*
X001840Y014163D02*
X002900Y014163D01*
X002900Y014004D02*
X001840Y014004D01*
X001840Y013846D02*
X002900Y013846D01*
X002900Y013687D02*
X001840Y013687D01*
X001840Y013529D02*
X002900Y013529D01*
X002900Y013370D02*
X001840Y013370D01*
X001840Y013212D02*
X002900Y013212D01*
M02*
