G75*
%MOIN*%
%OFA0B0*%
%FSLAX24Y24*%
%IPPOS*%
%LPD*%
%AMOC8*
5,1,8,0,0,1.08239X$1,22.5*
%
%ADD10C,0.0060*%
D10*
X014348Y004210D02*
X014775Y004210D01*
X014561Y004210D02*
X014561Y004851D01*
X014775Y004637D01*
X014992Y004744D02*
X015099Y004851D01*
X015313Y004851D01*
X015419Y004744D01*
X015419Y004317D01*
X014992Y004744D01*
X014992Y004317D01*
X015099Y004210D01*
X015313Y004210D01*
X015419Y004317D01*
X015637Y004637D02*
X015850Y004210D01*
X016064Y004637D01*
X016281Y004103D02*
X016708Y004103D01*
X016926Y004210D02*
X017353Y004210D01*
X017139Y004210D02*
X017139Y004851D01*
X017353Y004637D01*
X017571Y004637D02*
X017998Y004210D01*
X018215Y004210D02*
X018215Y004530D01*
X018322Y004637D01*
X018642Y004637D01*
X018642Y004210D01*
X018860Y004317D02*
X018860Y004530D01*
X018966Y004637D01*
X019180Y004637D01*
X019287Y004530D01*
X019287Y004317D01*
X019180Y004210D01*
X018966Y004210D01*
X018860Y004317D01*
X019504Y004210D02*
X019824Y004210D01*
X019931Y004317D01*
X019931Y004530D01*
X019824Y004637D01*
X019504Y004637D01*
X020147Y004637D02*
X020361Y004637D01*
X020254Y004744D02*
X020254Y004317D01*
X020147Y004210D01*
X020578Y004424D02*
X021005Y004424D01*
X021005Y004530D02*
X020899Y004637D01*
X020685Y004637D01*
X020578Y004530D01*
X020578Y004424D01*
X020685Y004210D02*
X020899Y004210D01*
X021005Y004317D01*
X021005Y004530D01*
X021223Y004530D02*
X021223Y004210D01*
X021223Y004530D02*
X021330Y004637D01*
X021650Y004637D01*
X021650Y004210D01*
X017998Y004637D02*
X017571Y004210D01*
M02*
