%
M48
M72
T01C0.0400
%
T01
X3180Y11680
X4180Y11680
X5180Y11680
X6180Y11680
X7180Y11680
X8180Y11680
X9180Y11680
X10180Y11680
X11180Y11680
X12180Y11680
X13180Y11680
X14180Y11680
X15180Y11680
X16180Y11680
X17180Y11680
X18180Y11680
X19180Y11680
X20180Y11680
X21180Y11680
X22180Y11680
X22180Y12680
X21180Y12680
X20180Y12680
X19180Y12680
X18180Y12680
X17180Y12680
X16180Y12680
X15180Y12680
X14180Y12680
X13180Y12680
X12180Y12680
X11180Y12680
X10180Y12680
X9180Y12680
X8180Y12680
X7180Y12680
X6180Y12680
X5180Y12680
X4180Y12680
X3180Y12680
X25680Y12680
X26680Y12680
X27680Y12680
X28680Y12680
X29680Y12680
X30680Y12680
X31680Y12680
X32680Y12680
X33680Y12680
X34680Y12680
X34680Y11680
X33680Y11680
X32680Y11680
X31680Y11680
X30680Y11680
X29680Y11680
X28680Y11680
X27680Y11680
X26680Y11680
X25680Y11680
M30
